<mxfile host="app.diagrams.net" modified="2024-07-01T06:59:17.974Z" agent="Mozilla/5.0 (Windows NT 10.0; Win64; x64) AppleWebKit/537.36 (KHTML, like Gecko) Chrome/126.0.0.0 Safari/537.36 Edg/126.0.0.0" etag="0ZlJkY7Aq7vDNcg-6-pe" version="24.6.4" type="github" pages="4">
  <diagram id="Um2cLhxPIT0HSOK7LCRt" name="Trang-2">
    <mxGraphModel dx="2408" dy="2123" grid="1" gridSize="10" guides="1" tooltips="1" connect="1" arrows="1" fold="1" page="1" pageScale="1" pageWidth="827" pageHeight="1169" math="0" shadow="0">
      <root>
        <mxCell id="0" />
        <mxCell id="1" parent="0" />
        <mxCell id="FVKmrSiL7UXu7j0TAZ8A-1" value="" style="shape=umlLifeline;perimeter=lifelinePerimeter;whiteSpace=wrap;html=1;container=1;dropTarget=0;collapsible=0;recursiveResize=0;outlineConnect=0;portConstraint=eastwest;newEdgeStyle={&quot;curved&quot;:0,&quot;rounded&quot;:0};participant=umlActor;" vertex="1" parent="1">
          <mxGeometry x="109" y="-80" width="20" height="680" as="geometry" />
        </mxCell>
        <mxCell id="Fh6oWcTRSo0T9Pflimcl-1" value="" style="html=1;points=[[0,0,0,0,5],[0,1,0,0,-5],[1,0,0,0,5],[1,1,0,0,-5]];perimeter=orthogonalPerimeter;outlineConnect=0;targetShapes=umlLifeline;portConstraint=eastwest;newEdgeStyle={&quot;curved&quot;:0,&quot;rounded&quot;:0};" vertex="1" parent="FVKmrSiL7UXu7j0TAZ8A-1">
          <mxGeometry x="5" y="80" width="10" height="600" as="geometry" />
        </mxCell>
        <mxCell id="FVKmrSiL7UXu7j0TAZ8A-2" value="" style="shape=umlLifeline;perimeter=lifelinePerimeter;whiteSpace=wrap;html=1;container=1;dropTarget=0;collapsible=0;recursiveResize=0;outlineConnect=0;portConstraint=eastwest;newEdgeStyle={&quot;curved&quot;:0,&quot;rounded&quot;:0};participant=umlBoundary;" vertex="1" parent="1">
          <mxGeometry x="214" y="-80" width="50" height="680" as="geometry" />
        </mxCell>
        <mxCell id="Fh6oWcTRSo0T9Pflimcl-2" value="" style="html=1;points=[[0,0,0,0,5],[0,1,0,0,-5],[1,0,0,0,5],[1,1,0,0,-5]];perimeter=orthogonalPerimeter;outlineConnect=0;targetShapes=umlLifeline;portConstraint=eastwest;newEdgeStyle={&quot;curved&quot;:0,&quot;rounded&quot;:0};" vertex="1" parent="FVKmrSiL7UXu7j0TAZ8A-2">
          <mxGeometry x="20" y="80" width="10" height="570" as="geometry" />
        </mxCell>
        <mxCell id="FVKmrSiL7UXu7j0TAZ8A-4" value="" style="shape=umlLifeline;perimeter=lifelinePerimeter;whiteSpace=wrap;html=1;container=1;dropTarget=0;collapsible=0;recursiveResize=0;outlineConnect=0;portConstraint=eastwest;newEdgeStyle={&quot;curved&quot;:0,&quot;rounded&quot;:0};participant=umlControl;" vertex="1" parent="1">
          <mxGeometry x="340" y="-80" width="40" height="680" as="geometry" />
        </mxCell>
        <mxCell id="Fh6oWcTRSo0T9Pflimcl-3" value="" style="html=1;points=[[0,0,0,0,5],[0,1,0,0,-5],[1,0,0,0,5],[1,1,0,0,-5]];perimeter=orthogonalPerimeter;outlineConnect=0;targetShapes=umlLifeline;portConstraint=eastwest;newEdgeStyle={&quot;curved&quot;:0,&quot;rounded&quot;:0};" vertex="1" parent="FVKmrSiL7UXu7j0TAZ8A-4">
          <mxGeometry x="15" y="180" width="10" height="430" as="geometry" />
        </mxCell>
        <mxCell id="FVKmrSiL7UXu7j0TAZ8A-5" value="Người dùng" style="text;html=1;align=center;verticalAlign=middle;resizable=0;points=[];autosize=1;strokeColor=none;fillColor=none;" vertex="1" parent="1">
          <mxGeometry x="74" y="-110" width="90" height="30" as="geometry" />
        </mxCell>
        <mxCell id="FVKmrSiL7UXu7j0TAZ8A-6" value="Bound: ứng dụng" style="text;html=1;align=center;verticalAlign=middle;resizable=0;points=[];autosize=1;strokeColor=none;fillColor=none;" vertex="1" parent="1">
          <mxGeometry x="179" y="-110" width="120" height="30" as="geometry" />
        </mxCell>
        <mxCell id="FVKmrSiL7UXu7j0TAZ8A-7" value="Controller:&amp;nbsp;" style="text;html=1;align=center;verticalAlign=middle;resizable=0;points=[];autosize=1;strokeColor=none;fillColor=none;" vertex="1" parent="1">
          <mxGeometry x="320" y="-110" width="80" height="30" as="geometry" />
        </mxCell>
        <mxCell id="FVKmrSiL7UXu7j0TAZ8A-8" value="" style="shape=umlLifeline;perimeter=lifelinePerimeter;whiteSpace=wrap;html=1;container=1;dropTarget=0;collapsible=0;recursiveResize=0;outlineConnect=0;portConstraint=eastwest;newEdgeStyle={&quot;curved&quot;:0,&quot;rounded&quot;:0};participant=umlControl;" vertex="1" parent="1">
          <mxGeometry x="460" y="-80" width="40" height="680" as="geometry" />
        </mxCell>
        <mxCell id="Fh6oWcTRSo0T9Pflimcl-4" value="" style="html=1;points=[[0,0,0,0,5],[0,1,0,0,-5],[1,0,0,0,5],[1,1,0,0,-5]];perimeter=orthogonalPerimeter;outlineConnect=0;targetShapes=umlLifeline;portConstraint=eastwest;newEdgeStyle={&quot;curved&quot;:0,&quot;rounded&quot;:0};" vertex="1" parent="FVKmrSiL7UXu7j0TAZ8A-8">
          <mxGeometry x="15" y="230" width="10" height="340" as="geometry" />
        </mxCell>
        <mxCell id="FVKmrSiL7UXu7j0TAZ8A-9" value="Controller:&amp;nbsp;" style="text;html=1;align=center;verticalAlign=middle;resizable=0;points=[];autosize=1;strokeColor=none;fillColor=none;" vertex="1" parent="1">
          <mxGeometry x="440" y="-110" width="80" height="30" as="geometry" />
        </mxCell>
        <mxCell id="R-_ZB-R3SjHxUtPHFskZ-1" value="" style="shape=umlLifeline;perimeter=lifelinePerimeter;whiteSpace=wrap;html=1;container=1;dropTarget=0;collapsible=0;recursiveResize=0;outlineConnect=0;portConstraint=eastwest;newEdgeStyle={&quot;curved&quot;:0,&quot;rounded&quot;:0};participant=umlBoundary;" vertex="1" parent="1">
          <mxGeometry x="574.5" y="-80" width="50" height="680" as="geometry" />
        </mxCell>
        <mxCell id="Fh6oWcTRSo0T9Pflimcl-5" value="" style="html=1;points=[[0,0,0,0,5],[0,1,0,0,-5],[1,0,0,0,5],[1,1,0,0,-5]];perimeter=orthogonalPerimeter;outlineConnect=0;targetShapes=umlLifeline;portConstraint=eastwest;newEdgeStyle={&quot;curved&quot;:0,&quot;rounded&quot;:0};" vertex="1" parent="R-_ZB-R3SjHxUtPHFskZ-1">
          <mxGeometry x="20" y="300" width="10" height="210" as="geometry" />
        </mxCell>
        <mxCell id="R-_ZB-R3SjHxUtPHFskZ-2" value="Bound: cobot" style="text;html=1;align=center;verticalAlign=middle;resizable=0;points=[];autosize=1;strokeColor=none;fillColor=none;" vertex="1" parent="1">
          <mxGeometry x="554.5" y="-110" width="90" height="30" as="geometry" />
        </mxCell>
        <mxCell id="jlGODwU9ouqILRLaFTp6-3" value="" style="shape=umlLifeline;perimeter=lifelinePerimeter;whiteSpace=wrap;html=1;container=1;dropTarget=0;collapsible=0;recursiveResize=0;outlineConnect=0;portConstraint=eastwest;newEdgeStyle={&quot;curved&quot;:0,&quot;rounded&quot;:0};participant=umlEntity;" vertex="1" parent="1">
          <mxGeometry x="742" y="-80" width="40" height="680" as="geometry" />
        </mxCell>
        <mxCell id="xOKaE2t_iJ_zbuyh3zu6-8" value="" style="html=1;points=[[0,0,0,0,5],[0,1,0,0,-5],[1,0,0,0,5],[1,1,0,0,-5]];perimeter=orthogonalPerimeter;outlineConnect=0;targetShapes=umlLifeline;portConstraint=eastwest;newEdgeStyle={&quot;curved&quot;:0,&quot;rounded&quot;:0};" vertex="1" parent="jlGODwU9ouqILRLaFTp6-3">
          <mxGeometry x="15" y="350" width="10" height="110" as="geometry" />
        </mxCell>
        <mxCell id="jlGODwU9ouqILRLaFTp6-4" value="Entity: cơ sở dữ liệu" style="text;html=1;align=center;verticalAlign=middle;resizable=0;points=[];autosize=1;strokeColor=none;fillColor=none;" vertex="1" parent="1">
          <mxGeometry x="697" y="-110" width="130" height="30" as="geometry" />
        </mxCell>
        <mxCell id="xOKaE2t_iJ_zbuyh3zu6-1" value="Lựa chọn bộ phận&amp;nbsp;&lt;div&gt;chuyển động của&amp;nbsp;&lt;/div&gt;" style="html=1;verticalAlign=bottom;endArrow=block;curved=0;rounded=0;" edge="1" parent="1" target="Fh6oWcTRSo0T9Pflimcl-2">
          <mxGeometry width="80" relative="1" as="geometry">
            <mxPoint x="124" y="17" as="sourcePoint" />
            <mxPoint x="275" y="17" as="targetPoint" />
          </mxGeometry>
        </mxCell>
        <mxCell id="xOKaE2t_iJ_zbuyh3zu6-2" value="Yêu cầu chuyển động&amp;nbsp;&lt;div&gt;với thông số&lt;/div&gt;" style="html=1;verticalAlign=bottom;endArrow=block;curved=0;rounded=0;" edge="1" parent="1" target="Fh6oWcTRSo0T9Pflimcl-2">
          <mxGeometry width="80" relative="1" as="geometry">
            <mxPoint x="124" y="81" as="sourcePoint" />
            <mxPoint x="275" y="81" as="targetPoint" />
          </mxGeometry>
        </mxCell>
        <mxCell id="xOKaE2t_iJ_zbuyh3zu6-4" value="Gửi yêu cầu chuyển&lt;div&gt;&amp;nbsp;động kèm thống số&lt;/div&gt;" style="html=1;verticalAlign=bottom;endArrow=block;curved=0;rounded=0;" edge="1" parent="1">
          <mxGeometry width="80" relative="1" as="geometry">
            <mxPoint x="244" y="140" as="sourcePoint" />
            <mxPoint x="355" y="140" as="targetPoint" />
          </mxGeometry>
        </mxCell>
        <mxCell id="xOKaE2t_iJ_zbuyh3zu6-5" value="Gửi yêu cầu chuyển&lt;div&gt;&amp;nbsp;động kèm thống số&lt;/div&gt;" style="html=1;verticalAlign=bottom;endArrow=block;curved=0;rounded=0;" edge="1" parent="1">
          <mxGeometry width="80" relative="1" as="geometry">
            <mxPoint x="365" y="186" as="sourcePoint" />
            <mxPoint x="475" y="186" as="targetPoint" />
          </mxGeometry>
        </mxCell>
        <mxCell id="xOKaE2t_iJ_zbuyh3zu6-6" value="Gửi yêu cầu chuyển&lt;div&gt;&amp;nbsp;động kèm thống số&lt;/div&gt;" style="html=1;verticalAlign=bottom;endArrow=block;curved=0;rounded=0;" edge="1" parent="1" source="Fh6oWcTRSo0T9Pflimcl-4">
          <mxGeometry width="80" relative="1" as="geometry">
            <mxPoint x="325.5" y="225" as="sourcePoint" />
            <mxPoint x="594.5" y="225" as="targetPoint" />
          </mxGeometry>
        </mxCell>
        <mxCell id="xOKaE2t_iJ_zbuyh3zu6-7" value="Cobot chuyển động và&amp;nbsp;&lt;div&gt;cập nhật trạng thái&lt;/div&gt;&lt;div&gt;&amp;nbsp;vào cơ sở dữ liệu&lt;/div&gt;" style="html=1;verticalAlign=bottom;endArrow=block;curved=0;rounded=0;" edge="1" parent="1">
          <mxGeometry width="80" relative="1" as="geometry">
            <mxPoint x="604.5" y="277" as="sourcePoint" />
            <mxPoint x="757" y="277" as="targetPoint" />
          </mxGeometry>
        </mxCell>
        <mxCell id="xOKaE2t_iJ_zbuyh3zu6-9" value="Trả về kết quả" style="html=1;verticalAlign=bottom;endArrow=open;dashed=1;endSize=8;curved=0;rounded=0;exitX=0;exitY=1;exitDx=0;exitDy=-5;exitPerimeter=0;" edge="1" parent="1" source="xOKaE2t_iJ_zbuyh3zu6-8" target="Fh6oWcTRSo0T9Pflimcl-5">
          <mxGeometry relative="1" as="geometry">
            <mxPoint x="714.5" y="354" as="sourcePoint" />
            <mxPoint x="404" y="354" as="targetPoint" />
          </mxGeometry>
        </mxCell>
        <mxCell id="xOKaE2t_iJ_zbuyh3zu6-10" value="Trả về kết quả" style="html=1;verticalAlign=bottom;endArrow=open;dashed=1;endSize=8;curved=0;rounded=0;exitX=0;exitY=1;exitDx=0;exitDy=-5;exitPerimeter=0;" edge="1" parent="1" source="Fh6oWcTRSo0T9Pflimcl-5" target="Fh6oWcTRSo0T9Pflimcl-4">
          <mxGeometry relative="1" as="geometry">
            <mxPoint x="754" y="406" as="sourcePoint" />
            <mxPoint x="604" y="406" as="targetPoint" />
          </mxGeometry>
        </mxCell>
        <mxCell id="xOKaE2t_iJ_zbuyh3zu6-11" value="Trả về kết quả" style="html=1;verticalAlign=bottom;endArrow=open;dashed=1;endSize=8;curved=0;rounded=0;exitX=0;exitY=1;exitDx=0;exitDy=-5;exitPerimeter=0;" edge="1" parent="1" source="Fh6oWcTRSo0T9Pflimcl-4" target="Fh6oWcTRSo0T9Pflimcl-3">
          <mxGeometry relative="1" as="geometry">
            <mxPoint x="480" y="480" as="sourcePoint" />
            <mxPoint x="370" y="480" as="targetPoint" />
          </mxGeometry>
        </mxCell>
        <mxCell id="xOKaE2t_iJ_zbuyh3zu6-12" value="Trả về kết quả" style="html=1;verticalAlign=bottom;endArrow=open;dashed=1;endSize=8;curved=0;rounded=0;exitX=0;exitY=1;exitDx=0;exitDy=-5;exitPerimeter=0;" edge="1" parent="1" source="Fh6oWcTRSo0T9Pflimcl-3" target="Fh6oWcTRSo0T9Pflimcl-2">
          <mxGeometry relative="1" as="geometry">
            <mxPoint x="355" y="520" as="sourcePoint" />
            <mxPoint x="244" y="520" as="targetPoint" />
          </mxGeometry>
        </mxCell>
        <mxCell id="xOKaE2t_iJ_zbuyh3zu6-13" value="Trả về kết quả" style="html=1;verticalAlign=bottom;endArrow=open;dashed=1;endSize=8;curved=0;rounded=0;exitX=0;exitY=1;exitDx=0;exitDy=-5;exitPerimeter=0;" edge="1" parent="1" source="Fh6oWcTRSo0T9Pflimcl-2" target="Fh6oWcTRSo0T9Pflimcl-1">
          <mxGeometry relative="1" as="geometry">
            <mxPoint x="274" y="560" as="sourcePoint" />
            <mxPoint x="124" y="560" as="targetPoint" />
          </mxGeometry>
        </mxCell>
        <mxCell id="xOKaE2t_iJ_zbuyh3zu6-14" value="Điều khiển cobot" style="shape=umlFrame;whiteSpace=wrap;html=1;pointerEvents=0;width=130;height=30;" vertex="1" parent="1">
          <mxGeometry x="40" y="-150" width="790" height="830" as="geometry" />
        </mxCell>
      </root>
    </mxGraphModel>
  </diagram>
  <diagram name="Page-1" id="13e1069c-82ec-6db2-03f1-153e76fe0fe0">
    <mxGraphModel dx="4110" dy="2043" grid="1" gridSize="10" guides="1" tooltips="1" connect="1" arrows="1" fold="1" page="1" pageScale="1" pageWidth="1100" pageHeight="850" background="none" math="0" shadow="0">
      <root>
        <mxCell id="0" />
        <mxCell id="1" parent="0" />
        <mxCell id="O41tWyji5npoEAFaCc7U-1" value="" style="shape=umlLifeline;perimeter=lifelinePerimeter;whiteSpace=wrap;html=1;container=1;dropTarget=0;collapsible=0;recursiveResize=0;outlineConnect=0;portConstraint=eastwest;newEdgeStyle={&quot;curved&quot;:0,&quot;rounded&quot;:0};participant=umlActor;" vertex="1" parent="1">
          <mxGeometry x="111" y="-80" width="20" height="760" as="geometry" />
        </mxCell>
        <mxCell id="oK9c5XynLo0WFM1sqnox-1" value="" style="html=1;points=[[0,0,0,0,5],[0,1,0,0,-5],[1,0,0,0,5],[1,1,0,0,-5]];perimeter=orthogonalPerimeter;outlineConnect=0;targetShapes=umlLifeline;portConstraint=eastwest;newEdgeStyle={&quot;curved&quot;:0,&quot;rounded&quot;:0};" vertex="1" parent="O41tWyji5npoEAFaCc7U-1">
          <mxGeometry x="5" y="80" width="10" height="670" as="geometry" />
        </mxCell>
        <mxCell id="O41tWyji5npoEAFaCc7U-2" value="" style="shape=umlLifeline;perimeter=lifelinePerimeter;whiteSpace=wrap;html=1;container=1;dropTarget=0;collapsible=0;recursiveResize=0;outlineConnect=0;portConstraint=eastwest;newEdgeStyle={&quot;curved&quot;:0,&quot;rounded&quot;:0};participant=umlBoundary;" vertex="1" parent="1">
          <mxGeometry x="215" y="-80" width="50" height="760" as="geometry" />
        </mxCell>
        <mxCell id="oK9c5XynLo0WFM1sqnox-2" value="" style="html=1;points=[[0,0,0,0,5],[0,1,0,0,-5],[1,0,0,0,5],[1,1,0,0,-5]];perimeter=orthogonalPerimeter;outlineConnect=0;targetShapes=umlLifeline;portConstraint=eastwest;newEdgeStyle={&quot;curved&quot;:0,&quot;rounded&quot;:0};" vertex="1" parent="O41tWyji5npoEAFaCc7U-2">
          <mxGeometry x="20" y="80" width="10" height="610" as="geometry" />
        </mxCell>
        <mxCell id="O41tWyji5npoEAFaCc7U-3" value="" style="shape=umlLifeline;perimeter=lifelinePerimeter;whiteSpace=wrap;html=1;container=1;dropTarget=0;collapsible=0;recursiveResize=0;outlineConnect=0;portConstraint=eastwest;newEdgeStyle={&quot;curved&quot;:0,&quot;rounded&quot;:0};participant=umlEntity;" vertex="1" parent="1">
          <mxGeometry x="580" y="-80" width="40" height="760" as="geometry" />
        </mxCell>
        <mxCell id="3qQlZCgx_oHnSJWXq4zv-2" value="" style="html=1;points=[[0,0,0,0,5],[0,1,0,0,-5],[1,0,0,0,5],[1,1,0,0,-5]];perimeter=orthogonalPerimeter;outlineConnect=0;targetShapes=umlLifeline;portConstraint=eastwest;newEdgeStyle={&quot;curved&quot;:0,&quot;rounded&quot;:0};" vertex="1" parent="O41tWyji5npoEAFaCc7U-3">
          <mxGeometry x="15" y="520" width="10" height="60" as="geometry" />
        </mxCell>
        <mxCell id="O41tWyji5npoEAFaCc7U-5" value="" style="shape=umlLifeline;perimeter=lifelinePerimeter;whiteSpace=wrap;html=1;container=1;dropTarget=0;collapsible=0;recursiveResize=0;outlineConnect=0;portConstraint=eastwest;newEdgeStyle={&quot;curved&quot;:0,&quot;rounded&quot;:0};participant=umlControl;" vertex="1" parent="1">
          <mxGeometry x="340" y="-80" width="40" height="760" as="geometry" />
        </mxCell>
        <mxCell id="oK9c5XynLo0WFM1sqnox-3" value="" style="html=1;points=[[0,0,0,0,5],[0,1,0,0,-5],[1,0,0,0,5],[1,1,0,0,-5]];perimeter=orthogonalPerimeter;outlineConnect=0;targetShapes=umlLifeline;portConstraint=eastwest;newEdgeStyle={&quot;curved&quot;:0,&quot;rounded&quot;:0};" vertex="1" parent="O41tWyji5npoEAFaCc7U-5">
          <mxGeometry x="15" y="80" width="10" height="560" as="geometry" />
        </mxCell>
        <mxCell id="O41tWyji5npoEAFaCc7U-7" value="Người dùng" style="text;html=1;align=center;verticalAlign=middle;resizable=0;points=[];autosize=1;strokeColor=none;fillColor=none;" vertex="1" parent="1">
          <mxGeometry x="76" y="-110" width="90" height="30" as="geometry" />
        </mxCell>
        <mxCell id="O41tWyji5npoEAFaCc7U-8" value="Bound: ứng dụng" style="text;html=1;align=center;verticalAlign=middle;resizable=0;points=[];autosize=1;strokeColor=none;fillColor=none;" vertex="1" parent="1">
          <mxGeometry x="180" y="-110" width="120" height="30" as="geometry" />
        </mxCell>
        <mxCell id="O41tWyji5npoEAFaCc7U-9" value="Controller:&amp;nbsp;" style="text;html=1;align=center;verticalAlign=middle;resizable=0;points=[];autosize=1;strokeColor=none;fillColor=none;" vertex="1" parent="1">
          <mxGeometry x="320" y="-110" width="80" height="30" as="geometry" />
        </mxCell>
        <mxCell id="O41tWyji5npoEAFaCc7U-11" value="" style="shape=umlLifeline;perimeter=lifelinePerimeter;whiteSpace=wrap;html=1;container=1;dropTarget=0;collapsible=0;recursiveResize=0;outlineConnect=0;portConstraint=eastwest;newEdgeStyle={&quot;curved&quot;:0,&quot;rounded&quot;:0};participant=umlControl;" vertex="1" parent="1">
          <mxGeometry x="460" y="-80" width="40" height="760" as="geometry" />
        </mxCell>
        <mxCell id="3qQlZCgx_oHnSJWXq4zv-1" value="" style="html=1;points=[[0,0,0,0,5],[0,1,0,0,-5],[1,0,0,0,5],[1,1,0,0,-5]];perimeter=orthogonalPerimeter;outlineConnect=0;targetShapes=umlLifeline;portConstraint=eastwest;newEdgeStyle={&quot;curved&quot;:0,&quot;rounded&quot;:0};" vertex="1" parent="O41tWyji5npoEAFaCc7U-11">
          <mxGeometry x="15" y="80" width="10" height="530" as="geometry" />
        </mxCell>
        <mxCell id="gvJqchrP3Ripny9ITOQi-11" value="" style="html=1;points=[[0,0,0,0,5],[0,1,0,0,-5],[1,0,0,0,5],[1,1,0,0,-5]];perimeter=orthogonalPerimeter;outlineConnect=0;targetShapes=umlLifeline;portConstraint=eastwest;newEdgeStyle={&quot;curved&quot;:0,&quot;rounded&quot;:0};" vertex="1" parent="O41tWyji5npoEAFaCc7U-11">
          <mxGeometry x="20" y="252" width="10" height="40" as="geometry" />
        </mxCell>
        <mxCell id="gvJqchrP3Ripny9ITOQi-13" value="kiểm tra&lt;div&gt;&amp;nbsp;tương tác&lt;/div&gt;" style="html=1;align=left;spacingLeft=2;endArrow=block;rounded=0;edgeStyle=orthogonalEdgeStyle;curved=0;rounded=0;entryX=1;entryY=0;entryDx=0;entryDy=5;entryPerimeter=0;exitX=1.033;exitY=0.242;exitDx=0;exitDy=0;exitPerimeter=0;" edge="1" target="gvJqchrP3Ripny9ITOQi-11" parent="O41tWyji5npoEAFaCc7U-11" source="3qQlZCgx_oHnSJWXq4zv-1">
          <mxGeometry relative="1" as="geometry">
            <mxPoint x="30" y="250" as="sourcePoint" />
            <Array as="points">
              <mxPoint x="60" y="225" />
              <mxPoint x="60" y="257" />
            </Array>
            <mxPoint x="35" y="279.9999999999998" as="targetPoint" />
          </mxGeometry>
        </mxCell>
        <mxCell id="O41tWyji5npoEAFaCc7U-12" value="Controller:&amp;nbsp;" style="text;html=1;align=center;verticalAlign=middle;resizable=0;points=[];autosize=1;strokeColor=none;fillColor=none;" vertex="1" parent="1">
          <mxGeometry x="440" y="-110" width="80" height="30" as="geometry" />
        </mxCell>
        <mxCell id="O41tWyji5npoEAFaCc7U-13" value="Entity: cơ sở dữ liệu" style="text;html=1;align=center;verticalAlign=middle;resizable=0;points=[];autosize=1;strokeColor=none;fillColor=none;" vertex="1" parent="1">
          <mxGeometry x="535" y="-110" width="130" height="30" as="geometry" />
        </mxCell>
        <mxCell id="gvJqchrP3Ripny9ITOQi-1" value="Tương" style="html=1;verticalAlign=bottom;endArrow=block;curved=0;rounded=0;exitX=1;exitY=0;exitDx=0;exitDy=5;exitPerimeter=0;entryX=0;entryY=0;entryDx=0;entryDy=5;entryPerimeter=0;" edge="1" parent="1" source="oK9c5XynLo0WFM1sqnox-1" target="oK9c5XynLo0WFM1sqnox-2">
          <mxGeometry width="80" relative="1" as="geometry">
            <mxPoint x="330" y="80" as="sourcePoint" />
            <mxPoint x="410" y="80" as="targetPoint" />
          </mxGeometry>
        </mxCell>
        <mxCell id="gvJqchrP3Ripny9ITOQi-3" value="Nhận diện hình&lt;div&gt;&amp;nbsp;thức tương tác&lt;/div&gt;" style="html=1;verticalAlign=bottom;endArrow=block;curved=0;rounded=0;" edge="1" parent="1">
          <mxGeometry width="80" relative="1" as="geometry">
            <mxPoint x="245" y="80" as="sourcePoint" />
            <mxPoint x="355" y="80" as="targetPoint" />
          </mxGeometry>
        </mxCell>
        <mxCell id="gvJqchrP3Ripny9ITOQi-5" value="Gửi yêu cầu&lt;div&gt;&amp;nbsp;tương tác&lt;/div&gt;" style="html=1;verticalAlign=bottom;endArrow=block;curved=0;rounded=0;" edge="1" parent="1">
          <mxGeometry width="80" relative="1" as="geometry">
            <mxPoint x="365" y="121" as="sourcePoint" />
            <mxPoint x="475" y="121" as="targetPoint" />
          </mxGeometry>
        </mxCell>
        <mxCell id="gvJqchrP3Ripny9ITOQi-14" value="Xử lý sự kiện tương tác" style="shape=umlFrame;whiteSpace=wrap;html=1;pointerEvents=0;width=130;height=30;" vertex="1" parent="1">
          <mxGeometry x="-30" y="-160" width="700" height="880" as="geometry" />
        </mxCell>
        <mxCell id="gvJqchrP3Ripny9ITOQi-15" value="Kiểm tra tương tác" style="shape=umlFrame;whiteSpace=wrap;html=1;pointerEvents=0;width=105;height=30;" vertex="1" parent="1">
          <mxGeometry y="240" width="640" height="390" as="geometry" />
        </mxCell>
        <mxCell id="gvJqchrP3Ripny9ITOQi-16" value="" style="endArrow=none;dashed=1;html=1;rounded=0;exitX=0;exitY=0.5;exitDx=0;exitDy=0;exitPerimeter=0;" edge="1" parent="1">
          <mxGeometry width="50" height="50" relative="1" as="geometry">
            <mxPoint y="391" as="sourcePoint" />
            <mxPoint x="640" y="390" as="targetPoint" />
          </mxGeometry>
        </mxCell>
        <mxCell id="gvJqchrP3Ripny9ITOQi-17" value="[Không hợp lệ]" style="text;html=1;align=center;verticalAlign=middle;resizable=0;points=[];autosize=1;strokeColor=none;fillColor=none;" vertex="1" parent="1">
          <mxGeometry y="280" width="100" height="30" as="geometry" />
        </mxCell>
        <mxCell id="gvJqchrP3Ripny9ITOQi-19" value="Thông báo không&lt;div&gt;&amp;nbsp;có tương tác&lt;/div&gt;" style="html=1;verticalAlign=bottom;endArrow=open;dashed=1;endSize=8;curved=0;rounded=0;" edge="1" parent="1">
          <mxGeometry relative="1" as="geometry">
            <mxPoint x="475" y="281" as="sourcePoint" />
            <mxPoint x="365" y="281" as="targetPoint" />
          </mxGeometry>
        </mxCell>
        <mxCell id="gvJqchrP3Ripny9ITOQi-20" value="Thông báo không&lt;div&gt;&amp;nbsp;có tương tác&lt;/div&gt;" style="html=1;verticalAlign=bottom;endArrow=open;dashed=1;endSize=8;curved=0;rounded=0;" edge="1" parent="1">
          <mxGeometry relative="1" as="geometry">
            <mxPoint x="355" y="320" as="sourcePoint" />
            <mxPoint x="245" y="320" as="targetPoint" />
          </mxGeometry>
        </mxCell>
        <mxCell id="gvJqchrP3Ripny9ITOQi-21" value="Đợi người dùng&lt;div&gt;&amp;nbsp;tương tác lại&lt;/div&gt;" style="html=1;verticalAlign=bottom;endArrow=open;dashed=1;endSize=8;curved=0;rounded=0;" edge="1" parent="1">
          <mxGeometry relative="1" as="geometry">
            <mxPoint x="235" y="360" as="sourcePoint" />
            <mxPoint x="126" y="360" as="targetPoint" />
          </mxGeometry>
        </mxCell>
        <mxCell id="gvJqchrP3Ripny9ITOQi-22" value="[Hợp lệ]" style="text;html=1;align=center;verticalAlign=middle;resizable=0;points=[];autosize=1;strokeColor=none;fillColor=none;" vertex="1" parent="1">
          <mxGeometry x="15" y="405" width="70" height="30" as="geometry" />
        </mxCell>
        <mxCell id="gvJqchrP3Ripny9ITOQi-23" value="Lưu thông tin&lt;div&gt;&amp;nbsp;tương tác&lt;/div&gt;" style="html=1;verticalAlign=bottom;endArrow=block;curved=0;rounded=0;entryX=0;entryY=0;entryDx=0;entryDy=5;entryPerimeter=0;" edge="1" parent="1" source="3qQlZCgx_oHnSJWXq4zv-1" target="3qQlZCgx_oHnSJWXq4zv-2">
          <mxGeometry width="80" relative="1" as="geometry">
            <mxPoint x="485" y="437" as="sourcePoint" />
            <mxPoint x="595" y="437" as="targetPoint" />
          </mxGeometry>
        </mxCell>
        <mxCell id="gvJqchrP3Ripny9ITOQi-24" value="Trả về thông tin&amp;nbsp;" style="html=1;verticalAlign=bottom;endArrow=open;dashed=1;endSize=8;curved=0;rounded=0;exitX=0;exitY=1;exitDx=0;exitDy=-5;exitPerimeter=0;" edge="1" parent="1" source="3qQlZCgx_oHnSJWXq4zv-2" target="3qQlZCgx_oHnSJWXq4zv-1">
          <mxGeometry relative="1" as="geometry">
            <mxPoint x="595" y="480" as="sourcePoint" />
            <mxPoint x="485" y="480" as="targetPoint" />
          </mxGeometry>
        </mxCell>
        <mxCell id="gvJqchrP3Ripny9ITOQi-25" value="Trả về thông tin&amp;nbsp;" style="html=1;verticalAlign=bottom;endArrow=open;dashed=1;endSize=8;curved=0;rounded=0;exitX=0;exitY=1;exitDx=0;exitDy=-5;exitPerimeter=0;" edge="1" parent="1" source="3qQlZCgx_oHnSJWXq4zv-1" target="oK9c5XynLo0WFM1sqnox-3">
          <mxGeometry relative="1" as="geometry">
            <mxPoint x="605" y="505" as="sourcePoint" />
            <mxPoint x="495" y="505" as="targetPoint" />
          </mxGeometry>
        </mxCell>
        <mxCell id="gvJqchrP3Ripny9ITOQi-26" value="Trả về thông tin&amp;nbsp;" style="html=1;verticalAlign=bottom;endArrow=open;dashed=1;endSize=8;curved=0;rounded=0;exitX=0;exitY=1;exitDx=0;exitDy=-5;exitPerimeter=0;" edge="1" parent="1" source="oK9c5XynLo0WFM1sqnox-3" target="oK9c5XynLo0WFM1sqnox-2">
          <mxGeometry relative="1" as="geometry">
            <mxPoint x="440" y="570" as="sourcePoint" />
            <mxPoint x="330" y="570" as="targetPoint" />
          </mxGeometry>
        </mxCell>
        <mxCell id="gvJqchrP3Ripny9ITOQi-27" value="Phản hồi lại kết quả" style="html=1;verticalAlign=bottom;endArrow=open;dashed=1;endSize=8;curved=0;rounded=0;exitX=0;exitY=1;exitDx=0;exitDy=-5;exitPerimeter=0;" edge="1" parent="1" source="oK9c5XynLo0WFM1sqnox-2" target="oK9c5XynLo0WFM1sqnox-1">
          <mxGeometry relative="1" as="geometry">
            <mxPoint x="230" y="600" as="sourcePoint" />
            <mxPoint x="120" y="600" as="targetPoint" />
          </mxGeometry>
        </mxCell>
      </root>
    </mxGraphModel>
  </diagram>
  <diagram id="05Dc0QeBXxWyKwHHA1-k" name="Trang-3">
    <mxGraphModel dx="1042" dy="2123" grid="1" gridSize="10" guides="1" tooltips="1" connect="1" arrows="1" fold="1" page="1" pageScale="1" pageWidth="827" pageHeight="1169" math="0" shadow="0">
      <root>
        <mxCell id="0" />
        <mxCell id="1" parent="0" />
        <mxCell id="5tfnrZuVDlsDp37Ymvfb-1" value="" style="shape=umlLifeline;perimeter=lifelinePerimeter;whiteSpace=wrap;html=1;container=1;dropTarget=0;collapsible=0;recursiveResize=0;outlineConnect=0;portConstraint=eastwest;newEdgeStyle={&quot;curved&quot;:0,&quot;rounded&quot;:0};participant=umlActor;" vertex="1" parent="1">
          <mxGeometry x="109" y="-80" width="20" height="600" as="geometry" />
        </mxCell>
        <mxCell id="5tfnrZuVDlsDp37Ymvfb-2" value="" style="html=1;points=[[0,0,0,0,5],[0,1,0,0,-5],[1,0,0,0,5],[1,1,0,0,-5]];perimeter=orthogonalPerimeter;outlineConnect=0;targetShapes=umlLifeline;portConstraint=eastwest;newEdgeStyle={&quot;curved&quot;:0,&quot;rounded&quot;:0};" vertex="1" parent="5tfnrZuVDlsDp37Ymvfb-1">
          <mxGeometry x="5" y="80" width="10" height="480" as="geometry" />
        </mxCell>
        <mxCell id="5tfnrZuVDlsDp37Ymvfb-3" value="" style="shape=umlLifeline;perimeter=lifelinePerimeter;whiteSpace=wrap;html=1;container=1;dropTarget=0;collapsible=0;recursiveResize=0;outlineConnect=0;portConstraint=eastwest;newEdgeStyle={&quot;curved&quot;:0,&quot;rounded&quot;:0};participant=umlBoundary;" vertex="1" parent="1">
          <mxGeometry x="214" y="-80" width="50" height="600" as="geometry" />
        </mxCell>
        <mxCell id="5tfnrZuVDlsDp37Ymvfb-4" value="" style="html=1;points=[[0,0,0,0,5],[0,1,0,0,-5],[1,0,0,0,5],[1,1,0,0,-5]];perimeter=orthogonalPerimeter;outlineConnect=0;targetShapes=umlLifeline;portConstraint=eastwest;newEdgeStyle={&quot;curved&quot;:0,&quot;rounded&quot;:0};" vertex="1" parent="5tfnrZuVDlsDp37Ymvfb-3">
          <mxGeometry x="20" y="80" width="10" height="440" as="geometry" />
        </mxCell>
        <mxCell id="5tfnrZuVDlsDp37Ymvfb-5" value="" style="shape=umlLifeline;perimeter=lifelinePerimeter;whiteSpace=wrap;html=1;container=1;dropTarget=0;collapsible=0;recursiveResize=0;outlineConnect=0;portConstraint=eastwest;newEdgeStyle={&quot;curved&quot;:0,&quot;rounded&quot;:0};participant=umlControl;" vertex="1" parent="1">
          <mxGeometry x="340" y="-80" width="40" height="600" as="geometry" />
        </mxCell>
        <mxCell id="5tfnrZuVDlsDp37Ymvfb-6" value="" style="html=1;points=[[0,0,0,0,5],[0,1,0,0,-5],[1,0,0,0,5],[1,1,0,0,-5]];perimeter=orthogonalPerimeter;outlineConnect=0;targetShapes=umlLifeline;portConstraint=eastwest;newEdgeStyle={&quot;curved&quot;:0,&quot;rounded&quot;:0};" vertex="1" parent="5tfnrZuVDlsDp37Ymvfb-5">
          <mxGeometry x="15" y="120" width="10" height="360" as="geometry" />
        </mxCell>
        <mxCell id="5tfnrZuVDlsDp37Ymvfb-7" value="Người dùng" style="text;html=1;align=center;verticalAlign=middle;resizable=0;points=[];autosize=1;strokeColor=none;fillColor=none;" vertex="1" parent="1">
          <mxGeometry x="74" y="-110" width="90" height="30" as="geometry" />
        </mxCell>
        <mxCell id="5tfnrZuVDlsDp37Ymvfb-8" value="Bound: ứng dụng" style="text;html=1;align=center;verticalAlign=middle;resizable=0;points=[];autosize=1;strokeColor=none;fillColor=none;" vertex="1" parent="1">
          <mxGeometry x="179" y="-110" width="120" height="30" as="geometry" />
        </mxCell>
        <mxCell id="5tfnrZuVDlsDp37Ymvfb-9" value="Controller:&amp;nbsp;" style="text;html=1;align=center;verticalAlign=middle;resizable=0;points=[];autosize=1;strokeColor=none;fillColor=none;" vertex="1" parent="1">
          <mxGeometry x="320" y="-110" width="80" height="30" as="geometry" />
        </mxCell>
        <mxCell id="5tfnrZuVDlsDp37Ymvfb-10" value="" style="shape=umlLifeline;perimeter=lifelinePerimeter;whiteSpace=wrap;html=1;container=1;dropTarget=0;collapsible=0;recursiveResize=0;outlineConnect=0;portConstraint=eastwest;newEdgeStyle={&quot;curved&quot;:0,&quot;rounded&quot;:0};participant=umlControl;" vertex="1" parent="1">
          <mxGeometry x="460" y="-80" width="40" height="600" as="geometry" />
        </mxCell>
        <mxCell id="5tfnrZuVDlsDp37Ymvfb-11" value="" style="html=1;points=[[0,0,0,0,5],[0,1,0,0,-5],[1,0,0,0,5],[1,1,0,0,-5]];perimeter=orthogonalPerimeter;outlineConnect=0;targetShapes=umlLifeline;portConstraint=eastwest;newEdgeStyle={&quot;curved&quot;:0,&quot;rounded&quot;:0};" vertex="1" parent="5tfnrZuVDlsDp37Ymvfb-10">
          <mxGeometry x="15" y="160" width="10" height="280" as="geometry" />
        </mxCell>
        <mxCell id="5tfnrZuVDlsDp37Ymvfb-12" value="Controller:&amp;nbsp;" style="text;html=1;align=center;verticalAlign=middle;resizable=0;points=[];autosize=1;strokeColor=none;fillColor=none;" vertex="1" parent="1">
          <mxGeometry x="440" y="-110" width="80" height="30" as="geometry" />
        </mxCell>
        <mxCell id="5tfnrZuVDlsDp37Ymvfb-13" value="" style="shape=umlLifeline;perimeter=lifelinePerimeter;whiteSpace=wrap;html=1;container=1;dropTarget=0;collapsible=0;recursiveResize=0;outlineConnect=0;portConstraint=eastwest;newEdgeStyle={&quot;curved&quot;:0,&quot;rounded&quot;:0};participant=umlBoundary;" vertex="1" parent="1">
          <mxGeometry x="574.5" y="-80" width="50" height="600" as="geometry" />
        </mxCell>
        <mxCell id="5tfnrZuVDlsDp37Ymvfb-14" value="" style="html=1;points=[[0,0,0,0,5],[0,1,0,0,-5],[1,0,0,0,5],[1,1,0,0,-5]];perimeter=orthogonalPerimeter;outlineConnect=0;targetShapes=umlLifeline;portConstraint=eastwest;newEdgeStyle={&quot;curved&quot;:0,&quot;rounded&quot;:0};" vertex="1" parent="5tfnrZuVDlsDp37Ymvfb-13">
          <mxGeometry x="20" y="200" width="10" height="60" as="geometry" />
        </mxCell>
        <mxCell id="5tfnrZuVDlsDp37Ymvfb-15" value="Bound: cobot" style="text;html=1;align=center;verticalAlign=middle;resizable=0;points=[];autosize=1;strokeColor=none;fillColor=none;" vertex="1" parent="1">
          <mxGeometry x="554.5" y="-110" width="90" height="30" as="geometry" />
        </mxCell>
        <mxCell id="5tfnrZuVDlsDp37Ymvfb-16" value="" style="shape=umlLifeline;perimeter=lifelinePerimeter;whiteSpace=wrap;html=1;container=1;dropTarget=0;collapsible=0;recursiveResize=0;outlineConnect=0;portConstraint=eastwest;newEdgeStyle={&quot;curved&quot;:0,&quot;rounded&quot;:0};participant=umlEntity;" vertex="1" parent="1">
          <mxGeometry x="701" y="-80" width="40" height="600" as="geometry" />
        </mxCell>
        <mxCell id="5tfnrZuVDlsDp37Ymvfb-17" value="" style="html=1;points=[[0,0,0,0,5],[0,1,0,0,-5],[1,0,0,0,5],[1,1,0,0,-5]];perimeter=orthogonalPerimeter;outlineConnect=0;targetShapes=umlLifeline;portConstraint=eastwest;newEdgeStyle={&quot;curved&quot;:0,&quot;rounded&quot;:0};" vertex="1" parent="5tfnrZuVDlsDp37Ymvfb-16">
          <mxGeometry x="15" y="320" width="10" height="80" as="geometry" />
        </mxCell>
        <mxCell id="5tfnrZuVDlsDp37Ymvfb-18" value="Entity: cơ sở dữ liệu" style="text;html=1;align=center;verticalAlign=middle;resizable=0;points=[];autosize=1;strokeColor=none;fillColor=none;" vertex="1" parent="1">
          <mxGeometry x="656" y="-110" width="130" height="30" as="geometry" />
        </mxCell>
        <mxCell id="5tfnrZuVDlsDp37Ymvfb-19" value="Yêu cầu&amp;nbsp;&lt;div&gt;cobot làm việc&lt;/div&gt;" style="html=1;verticalAlign=bottom;endArrow=block;curved=0;rounded=0;" edge="1" parent="1" target="5tfnrZuVDlsDp37Ymvfb-4">
          <mxGeometry width="80" relative="1" as="geometry">
            <mxPoint x="124" y="17" as="sourcePoint" />
            <mxPoint x="275" y="17" as="targetPoint" />
          </mxGeometry>
        </mxCell>
        <mxCell id="5tfnrZuVDlsDp37Ymvfb-21" value="Gửi yêu cầu" style="html=1;verticalAlign=bottom;endArrow=block;curved=0;rounded=0;entryX=0;entryY=0;entryDx=0;entryDy=5;entryPerimeter=0;" edge="1" parent="1" source="5tfnrZuVDlsDp37Ymvfb-4" target="5tfnrZuVDlsDp37Ymvfb-6">
          <mxGeometry width="80" relative="1" as="geometry">
            <mxPoint x="244" y="140" as="sourcePoint" />
            <mxPoint x="355" y="140" as="targetPoint" />
          </mxGeometry>
        </mxCell>
        <mxCell id="5tfnrZuVDlsDp37Ymvfb-22" value="Gửi yêu cầu" style="html=1;verticalAlign=bottom;endArrow=block;curved=0;rounded=0;entryX=0;entryY=0;entryDx=0;entryDy=5;entryPerimeter=0;" edge="1" parent="1" source="5tfnrZuVDlsDp37Ymvfb-6" target="5tfnrZuVDlsDp37Ymvfb-11">
          <mxGeometry width="80" relative="1" as="geometry">
            <mxPoint x="365" y="186" as="sourcePoint" />
            <mxPoint x="475" y="186" as="targetPoint" />
          </mxGeometry>
        </mxCell>
        <mxCell id="5tfnrZuVDlsDp37Ymvfb-23" value="Gửi yêu cầu" style="html=1;verticalAlign=bottom;endArrow=block;curved=0;rounded=0;entryX=0;entryY=0;entryDx=0;entryDy=5;entryPerimeter=0;" edge="1" parent="1" source="5tfnrZuVDlsDp37Ymvfb-11" target="5tfnrZuVDlsDp37Ymvfb-14">
          <mxGeometry width="80" relative="1" as="geometry">
            <mxPoint x="325.5" y="225" as="sourcePoint" />
            <mxPoint x="594.5" y="225" as="targetPoint" />
          </mxGeometry>
        </mxCell>
        <mxCell id="5tfnrZuVDlsDp37Ymvfb-26" value="Trả về trạng&amp;nbsp;&lt;div&gt;thái khi chuyển động&lt;/div&gt;" style="html=1;verticalAlign=bottom;endArrow=open;dashed=1;endSize=8;curved=0;rounded=0;exitX=0;exitY=1;exitDx=0;exitDy=-5;exitPerimeter=0;" edge="1" parent="1" source="5tfnrZuVDlsDp37Ymvfb-14" target="5tfnrZuVDlsDp37Ymvfb-11">
          <mxGeometry relative="1" as="geometry">
            <mxPoint x="754" y="406" as="sourcePoint" />
            <mxPoint x="604" y="406" as="targetPoint" />
          </mxGeometry>
        </mxCell>
        <mxCell id="5tfnrZuVDlsDp37Ymvfb-27" value="Trả về kết quả" style="html=1;verticalAlign=bottom;endArrow=open;dashed=1;endSize=8;curved=0;rounded=0;exitX=0;exitY=1;exitDx=0;exitDy=-5;exitPerimeter=0;" edge="1" parent="1" source="5tfnrZuVDlsDp37Ymvfb-11" target="5tfnrZuVDlsDp37Ymvfb-6">
          <mxGeometry relative="1" as="geometry">
            <mxPoint x="480" y="480" as="sourcePoint" />
            <mxPoint x="370" y="480" as="targetPoint" />
          </mxGeometry>
        </mxCell>
        <mxCell id="5tfnrZuVDlsDp37Ymvfb-28" value="Trả về kết quả" style="html=1;verticalAlign=bottom;endArrow=open;dashed=1;endSize=8;curved=0;rounded=0;exitX=0;exitY=1;exitDx=0;exitDy=-5;exitPerimeter=0;" edge="1" parent="1" source="5tfnrZuVDlsDp37Ymvfb-6" target="5tfnrZuVDlsDp37Ymvfb-4">
          <mxGeometry relative="1" as="geometry">
            <mxPoint x="355" y="520" as="sourcePoint" />
            <mxPoint x="244" y="520" as="targetPoint" />
          </mxGeometry>
        </mxCell>
        <mxCell id="5tfnrZuVDlsDp37Ymvfb-29" value="Trả về kết quả" style="html=1;verticalAlign=bottom;endArrow=open;dashed=1;endSize=8;curved=0;rounded=0;exitX=0;exitY=1;exitDx=0;exitDy=-5;exitPerimeter=0;" edge="1" parent="1" source="5tfnrZuVDlsDp37Ymvfb-4" target="5tfnrZuVDlsDp37Ymvfb-2">
          <mxGeometry relative="1" as="geometry">
            <mxPoint x="274" y="560" as="sourcePoint" />
            <mxPoint x="124" y="560" as="targetPoint" />
          </mxGeometry>
        </mxCell>
        <mxCell id="5tfnrZuVDlsDp37Ymvfb-30" value="Điều khiển cobot" style="shape=umlFrame;whiteSpace=wrap;html=1;pointerEvents=0;width=130;height=30;" vertex="1" parent="1">
          <mxGeometry x="70" y="-150" width="720" height="710" as="geometry" />
        </mxCell>
        <mxCell id="5tfnrZuVDlsDp37Ymvfb-32" value="Lưu và cập nhật thông tin&lt;div&gt;&amp;nbsp;trạng thái của cobot&lt;/div&gt;" style="html=1;verticalAlign=bottom;endArrow=block;curved=0;rounded=0;entryX=0;entryY=0;entryDx=0;entryDy=5;entryPerimeter=0;" edge="1" parent="1" source="5tfnrZuVDlsDp37Ymvfb-11" target="5tfnrZuVDlsDp37Ymvfb-17">
          <mxGeometry x="-0.4485" y="5" width="80" relative="1" as="geometry">
            <mxPoint x="550" y="290" as="sourcePoint" />
            <mxPoint x="630" y="290" as="targetPoint" />
            <mxPoint as="offset" />
          </mxGeometry>
        </mxCell>
        <mxCell id="VVzvL9lGNIwYx2i_yCMF-1" value="Trả về kết quả" style="html=1;verticalAlign=bottom;endArrow=open;dashed=1;endSize=8;curved=0;rounded=0;exitX=0;exitY=1;exitDx=0;exitDy=-5;exitPerimeter=0;" edge="1" parent="1" source="5tfnrZuVDlsDp37Ymvfb-17" target="5tfnrZuVDlsDp37Ymvfb-11">
          <mxGeometry x="-0.6544" relative="1" as="geometry">
            <mxPoint x="630" y="290" as="sourcePoint" />
            <mxPoint x="550" y="290" as="targetPoint" />
            <mxPoint as="offset" />
          </mxGeometry>
        </mxCell>
      </root>
    </mxGraphModel>
  </diagram>
  <diagram id="A0x8nYhGCnadDILsjWy_" name="Trang-4">
    <mxGraphModel dx="1778" dy="1551" grid="1" gridSize="10" guides="1" tooltips="1" connect="1" arrows="1" fold="1" page="1" pageScale="1" pageWidth="827" pageHeight="1169" math="0" shadow="0">
      <root>
        <mxCell id="0" />
        <mxCell id="1" parent="0" />
        <mxCell id="TOp8BgIdKu2vKP8mak-F-1" value="" style="shape=umlLifeline;perimeter=lifelinePerimeter;whiteSpace=wrap;html=1;container=1;dropTarget=0;collapsible=0;recursiveResize=0;outlineConnect=0;portConstraint=eastwest;newEdgeStyle={&quot;curved&quot;:0,&quot;rounded&quot;:0};participant=umlActor;" vertex="1" parent="1">
          <mxGeometry x="191" y="-80" width="20" height="1360" as="geometry" />
        </mxCell>
        <mxCell id="TOp8BgIdKu2vKP8mak-F-2" value="" style="html=1;points=[[0,0,0,0,5],[0,1,0,0,-5],[1,0,0,0,5],[1,1,0,0,-5]];perimeter=orthogonalPerimeter;outlineConnect=0;targetShapes=umlLifeline;portConstraint=eastwest;newEdgeStyle={&quot;curved&quot;:0,&quot;rounded&quot;:0};" vertex="1" parent="TOp8BgIdKu2vKP8mak-F-1">
          <mxGeometry x="5" y="80" width="10" height="1240" as="geometry" />
        </mxCell>
        <mxCell id="TOp8BgIdKu2vKP8mak-F-3" value="" style="shape=umlLifeline;perimeter=lifelinePerimeter;whiteSpace=wrap;html=1;container=1;dropTarget=0;collapsible=0;recursiveResize=0;outlineConnect=0;portConstraint=eastwest;newEdgeStyle={&quot;curved&quot;:0,&quot;rounded&quot;:0};participant=umlBoundary;" vertex="1" parent="1">
          <mxGeometry x="295" y="-80" width="50" height="1360" as="geometry" />
        </mxCell>
        <mxCell id="TOp8BgIdKu2vKP8mak-F-4" value="" style="html=1;points=[[0,0,0,0,5],[0,1,0,0,-5],[1,0,0,0,5],[1,1,0,0,-5]];perimeter=orthogonalPerimeter;outlineConnect=0;targetShapes=umlLifeline;portConstraint=eastwest;newEdgeStyle={&quot;curved&quot;:0,&quot;rounded&quot;:0};" vertex="1" parent="TOp8BgIdKu2vKP8mak-F-3">
          <mxGeometry x="20" y="80" width="10" height="330" as="geometry" />
        </mxCell>
        <mxCell id="TOp8BgIdKu2vKP8mak-F-5" value="" style="shape=umlLifeline;perimeter=lifelinePerimeter;whiteSpace=wrap;html=1;container=1;dropTarget=0;collapsible=0;recursiveResize=0;outlineConnect=0;portConstraint=eastwest;newEdgeStyle={&quot;curved&quot;:0,&quot;rounded&quot;:0};participant=umlEntity;" vertex="1" parent="1">
          <mxGeometry x="660" y="-80" width="40" height="1360" as="geometry" />
        </mxCell>
        <mxCell id="TOp8BgIdKu2vKP8mak-F-6" value="" style="html=1;points=[[0,0,0,0,5],[0,1,0,0,-5],[1,0,0,0,5],[1,1,0,0,-5]];perimeter=orthogonalPerimeter;outlineConnect=0;targetShapes=umlLifeline;portConstraint=eastwest;newEdgeStyle={&quot;curved&quot;:0,&quot;rounded&quot;:0};" vertex="1" parent="TOp8BgIdKu2vKP8mak-F-5">
          <mxGeometry x="15" y="190" width="10" height="90" as="geometry" />
        </mxCell>
        <mxCell id="TOp8BgIdKu2vKP8mak-F-7" value="" style="shape=umlLifeline;perimeter=lifelinePerimeter;whiteSpace=wrap;html=1;container=1;dropTarget=0;collapsible=0;recursiveResize=0;outlineConnect=0;portConstraint=eastwest;newEdgeStyle={&quot;curved&quot;:0,&quot;rounded&quot;:0};participant=umlControl;" vertex="1" parent="1">
          <mxGeometry x="420" y="-80" width="40" height="1360" as="geometry" />
        </mxCell>
        <mxCell id="TOp8BgIdKu2vKP8mak-F-8" value="" style="html=1;points=[[0,0,0,0,5],[0,1,0,0,-5],[1,0,0,0,5],[1,1,0,0,-5]];perimeter=orthogonalPerimeter;outlineConnect=0;targetShapes=umlLifeline;portConstraint=eastwest;newEdgeStyle={&quot;curved&quot;:0,&quot;rounded&quot;:0};" vertex="1" parent="TOp8BgIdKu2vKP8mak-F-7">
          <mxGeometry x="15" y="110" width="10" height="260" as="geometry" />
        </mxCell>
        <mxCell id="gHsjsL-RvakOTJj4pVCs-3" value="" style="html=1;points=[[0,0,0,0,5],[0,1,0,0,-5],[1,0,0,0,5],[1,1,0,0,-5]];perimeter=orthogonalPerimeter;outlineConnect=0;targetShapes=umlLifeline;portConstraint=eastwest;newEdgeStyle={&quot;curved&quot;:0,&quot;rounded&quot;:0};" vertex="1" parent="TOp8BgIdKu2vKP8mak-F-7">
          <mxGeometry x="15" y="577" width="10" height="263" as="geometry" />
        </mxCell>
        <mxCell id="TOp8BgIdKu2vKP8mak-F-9" value="Người dùng" style="text;html=1;align=center;verticalAlign=middle;resizable=0;points=[];autosize=1;strokeColor=none;fillColor=none;" vertex="1" parent="1">
          <mxGeometry x="156" y="-110" width="90" height="30" as="geometry" />
        </mxCell>
        <mxCell id="TOp8BgIdKu2vKP8mak-F-10" value="Bound: ứng dụng" style="text;html=1;align=center;verticalAlign=middle;resizable=0;points=[];autosize=1;strokeColor=none;fillColor=none;" vertex="1" parent="1">
          <mxGeometry x="260" y="-110" width="120" height="30" as="geometry" />
        </mxCell>
        <mxCell id="TOp8BgIdKu2vKP8mak-F-11" value="Controller:&amp;nbsp;" style="text;html=1;align=center;verticalAlign=middle;resizable=0;points=[];autosize=1;strokeColor=none;fillColor=none;" vertex="1" parent="1">
          <mxGeometry x="400" y="-110" width="80" height="30" as="geometry" />
        </mxCell>
        <mxCell id="TOp8BgIdKu2vKP8mak-F-12" value="" style="shape=umlLifeline;perimeter=lifelinePerimeter;whiteSpace=wrap;html=1;container=1;dropTarget=0;collapsible=0;recursiveResize=0;outlineConnect=0;portConstraint=eastwest;newEdgeStyle={&quot;curved&quot;:0,&quot;rounded&quot;:0};participant=umlControl;" vertex="1" parent="1">
          <mxGeometry x="540" y="-80" width="40" height="1360" as="geometry" />
        </mxCell>
        <mxCell id="TOp8BgIdKu2vKP8mak-F-13" value="" style="html=1;points=[[0,0,0,0,5],[0,1,0,0,-5],[1,0,0,0,5],[1,1,0,0,-5]];perimeter=orthogonalPerimeter;outlineConnect=0;targetShapes=umlLifeline;portConstraint=eastwest;newEdgeStyle={&quot;curved&quot;:0,&quot;rounded&quot;:0};" vertex="1" parent="TOp8BgIdKu2vKP8mak-F-12">
          <mxGeometry x="15" y="150" width="10" height="170" as="geometry" />
        </mxCell>
        <mxCell id="gHsjsL-RvakOTJj4pVCs-4" value="" style="html=1;points=[[0,0,0,0,5],[0,1,0,0,-5],[1,0,0,0,5],[1,1,0,0,-5]];perimeter=orthogonalPerimeter;outlineConnect=0;targetShapes=umlLifeline;portConstraint=eastwest;newEdgeStyle={&quot;curved&quot;:0,&quot;rounded&quot;:0};" vertex="1" parent="TOp8BgIdKu2vKP8mak-F-12">
          <mxGeometry x="15" y="620" width="10" height="170" as="geometry" />
        </mxCell>
        <mxCell id="gHsjsL-RvakOTJj4pVCs-21" value="" style="html=1;points=[[0,0,0,0,5],[0,1,0,0,-5],[1,0,0,0,5],[1,1,0,0,-5]];perimeter=orthogonalPerimeter;outlineConnect=0;targetShapes=umlLifeline;portConstraint=eastwest;newEdgeStyle={&quot;curved&quot;:0,&quot;rounded&quot;:0};" vertex="1" parent="TOp8BgIdKu2vKP8mak-F-12">
          <mxGeometry x="15" y="1070" width="10" height="160" as="geometry" />
        </mxCell>
        <mxCell id="TOp8BgIdKu2vKP8mak-F-14" value="Controller:&amp;nbsp;" style="text;html=1;align=center;verticalAlign=middle;resizable=0;points=[];autosize=1;strokeColor=none;fillColor=none;" vertex="1" parent="1">
          <mxGeometry x="520" y="-110" width="80" height="30" as="geometry" />
        </mxCell>
        <mxCell id="TOp8BgIdKu2vKP8mak-F-15" value="Entity: cơ sở dữ liệu" style="text;html=1;align=center;verticalAlign=middle;resizable=0;points=[];autosize=1;strokeColor=none;fillColor=none;" vertex="1" parent="1">
          <mxGeometry x="615" y="-110" width="130" height="30" as="geometry" />
        </mxCell>
        <mxCell id="TOp8BgIdKu2vKP8mak-F-16" value="Phát hiện và theo dõi đối tượng" style="shape=umlFrame;whiteSpace=wrap;html=1;pointerEvents=0;width=130;height=30;" vertex="1" parent="1">
          <mxGeometry x="-20" y="-160" width="770" height="1470" as="geometry" />
        </mxCell>
        <mxCell id="OKUJpB8mIziv4dUWANqg-1" value="Lựa chọn đối&lt;div&gt;&amp;nbsp;tượng theo dõi&lt;/div&gt;" style="html=1;verticalAlign=bottom;endArrow=block;curved=0;rounded=0;exitX=1;exitY=0;exitDx=0;exitDy=5;exitPerimeter=0;" edge="1" parent="1" source="TOp8BgIdKu2vKP8mak-F-2" target="TOp8BgIdKu2vKP8mak-F-4">
          <mxGeometry width="80" relative="1" as="geometry">
            <mxPoint x="390" y="40" as="sourcePoint" />
            <mxPoint x="470" y="40" as="targetPoint" />
          </mxGeometry>
        </mxCell>
        <mxCell id="D3TpLOHMZ0HLQb2mTQG_-1" value="Phát hiện đối tượng" style="html=1;verticalAlign=bottom;endArrow=block;curved=0;rounded=0;entryX=0;entryY=0;entryDx=0;entryDy=5;entryPerimeter=0;" edge="1" parent="1" source="TOp8BgIdKu2vKP8mak-F-4" target="TOp8BgIdKu2vKP8mak-F-8">
          <mxGeometry width="80" relative="1" as="geometry">
            <mxPoint x="325" y="79" as="sourcePoint" />
            <mxPoint x="435" y="79" as="targetPoint" />
          </mxGeometry>
        </mxCell>
        <mxCell id="D3TpLOHMZ0HLQb2mTQG_-2" value="Xử lý thông&amp;nbsp;&lt;div&gt;tin đối tượng&lt;/div&gt;" style="html=1;verticalAlign=bottom;endArrow=block;curved=0;rounded=0;entryX=0;entryY=0;entryDx=0;entryDy=5;entryPerimeter=0;" edge="1" parent="1" source="TOp8BgIdKu2vKP8mak-F-8" target="TOp8BgIdKu2vKP8mak-F-13">
          <mxGeometry width="80" relative="1" as="geometry">
            <mxPoint x="445" y="160" as="sourcePoint" />
            <mxPoint x="555" y="160" as="targetPoint" />
          </mxGeometry>
        </mxCell>
        <mxCell id="D3TpLOHMZ0HLQb2mTQG_-5" value="Lưu thông&amp;nbsp;&lt;div&gt;tin đối tượng&lt;/div&gt;" style="html=1;verticalAlign=bottom;endArrow=block;curved=0;rounded=0;entryX=0;entryY=0;entryDx=0;entryDy=5;entryPerimeter=0;" edge="1" parent="1" source="TOp8BgIdKu2vKP8mak-F-13" target="TOp8BgIdKu2vKP8mak-F-6">
          <mxGeometry width="80" relative="1" as="geometry">
            <mxPoint x="490" y="310" as="sourcePoint" />
            <mxPoint x="570" y="310" as="targetPoint" />
          </mxGeometry>
        </mxCell>
        <mxCell id="D3TpLOHMZ0HLQb2mTQG_-6" value="Trả về kết quả" style="html=1;verticalAlign=bottom;endArrow=open;dashed=1;endSize=8;curved=0;rounded=0;exitX=0;exitY=1;exitDx=0;exitDy=-5;exitPerimeter=0;" edge="1" parent="1" source="TOp8BgIdKu2vKP8mak-F-6" target="TOp8BgIdKu2vKP8mak-F-13">
          <mxGeometry relative="1" as="geometry">
            <mxPoint x="570" y="310" as="sourcePoint" />
            <mxPoint x="490" y="310" as="targetPoint" />
          </mxGeometry>
        </mxCell>
        <mxCell id="D3TpLOHMZ0HLQb2mTQG_-7" value="Trả về kết quả" style="html=1;verticalAlign=bottom;endArrow=open;dashed=1;endSize=8;curved=0;rounded=0;exitX=0;exitY=1;exitDx=0;exitDy=-5;exitPerimeter=0;" edge="1" parent="1" source="TOp8BgIdKu2vKP8mak-F-13" target="TOp8BgIdKu2vKP8mak-F-8">
          <mxGeometry relative="1" as="geometry">
            <mxPoint x="685" y="205" as="sourcePoint" />
            <mxPoint x="575" y="205" as="targetPoint" />
          </mxGeometry>
        </mxCell>
        <mxCell id="D3TpLOHMZ0HLQb2mTQG_-8" value="Trả về kết quả" style="html=1;verticalAlign=bottom;endArrow=open;dashed=1;endSize=8;curved=0;rounded=0;exitX=0;exitY=1;exitDx=0;exitDy=-5;exitPerimeter=0;" edge="1" parent="1" source="TOp8BgIdKu2vKP8mak-F-8" target="TOp8BgIdKu2vKP8mak-F-4">
          <mxGeometry relative="1" as="geometry">
            <mxPoint x="695" y="215" as="sourcePoint" />
            <mxPoint x="585" y="215" as="targetPoint" />
          </mxGeometry>
        </mxCell>
        <mxCell id="D3TpLOHMZ0HLQb2mTQG_-9" value="Hiển thị kết quả" style="html=1;verticalAlign=bottom;endArrow=open;dashed=1;endSize=8;curved=0;rounded=0;exitX=0;exitY=1;exitDx=0;exitDy=-5;exitPerimeter=0;" edge="1" parent="1" source="TOp8BgIdKu2vKP8mak-F-4" target="TOp8BgIdKu2vKP8mak-F-2">
          <mxGeometry relative="1" as="geometry">
            <mxPoint x="705" y="225" as="sourcePoint" />
            <mxPoint x="595" y="225" as="targetPoint" />
          </mxGeometry>
        </mxCell>
        <mxCell id="D3TpLOHMZ0HLQb2mTQG_-10" value="" style="html=1;points=[[0,0,0,0,5],[0,1,0,0,-5],[1,0,0,0,5],[1,1,0,0,-5]];perimeter=orthogonalPerimeter;outlineConnect=0;targetShapes=umlLifeline;portConstraint=eastwest;newEdgeStyle={&quot;curved&quot;:0,&quot;rounded&quot;:0};" vertex="1" parent="1">
          <mxGeometry x="315" y="358" width="10" height="462" as="geometry" />
        </mxCell>
        <mxCell id="D3TpLOHMZ0HLQb2mTQG_-13" value="" style="html=1;points=[[0,0,0,0,5],[0,1,0,0,-5],[1,0,0,0,5],[1,1,0,0,-5]];perimeter=orthogonalPerimeter;outlineConnect=0;targetShapes=umlLifeline;portConstraint=eastwest;newEdgeStyle={&quot;curved&quot;:0,&quot;rounded&quot;:0};" vertex="1" parent="1">
          <mxGeometry x="320" y="398" width="10" height="40" as="geometry" />
        </mxCell>
        <mxCell id="D3TpLOHMZ0HLQb2mTQG_-14" value="Tự động&lt;div&gt;lặp lại&lt;/div&gt;" style="html=1;align=left;spacingLeft=2;endArrow=block;rounded=0;edgeStyle=orthogonalEdgeStyle;curved=0;rounded=0;exitX=1;exitY=0;exitDx=0;exitDy=5;exitPerimeter=0;" edge="1" target="D3TpLOHMZ0HLQb2mTQG_-13" parent="1" source="D3TpLOHMZ0HLQb2mTQG_-10">
          <mxGeometry relative="1" as="geometry">
            <mxPoint x="325" y="358" as="sourcePoint" />
            <Array as="points">
              <mxPoint x="360" y="363" />
              <mxPoint x="360" y="403" />
            </Array>
          </mxGeometry>
        </mxCell>
        <mxCell id="D3TpLOHMZ0HLQb2mTQG_-15" value="Theo dõi đối tượng" style="shape=umlFrame;whiteSpace=wrap;html=1;pointerEvents=0;width=110;height=30;" vertex="1" parent="1">
          <mxGeometry y="450" width="730" height="840" as="geometry" />
        </mxCell>
        <mxCell id="D3TpLOHMZ0HLQb2mTQG_-16" value="" style="endArrow=none;dashed=1;html=1;rounded=0;exitX=0;exitY=0.5;exitDx=0;exitDy=0;exitPerimeter=0;entryX=1;entryY=0.5;entryDx=0;entryDy=0;entryPerimeter=0;" edge="1" parent="1">
          <mxGeometry width="50" height="50" relative="1" as="geometry">
            <mxPoint y="850" as="sourcePoint" />
            <mxPoint x="730" y="850" as="targetPoint" />
          </mxGeometry>
        </mxCell>
        <mxCell id="gHsjsL-RvakOTJj4pVCs-1" value="[Khi không có&amp;nbsp;&lt;div&gt;yêu cầu ngừng&lt;/div&gt;&lt;div&gt;&amp;nbsp;theo dõi]&lt;/div&gt;" style="text;html=1;align=center;verticalAlign=middle;resizable=0;points=[];autosize=1;strokeColor=none;fillColor=none;" vertex="1" parent="1">
          <mxGeometry x="20" y="490" width="100" height="60" as="geometry" />
        </mxCell>
        <mxCell id="gHsjsL-RvakOTJj4pVCs-2" value="Theo dõi đối tượng" style="html=1;verticalAlign=bottom;endArrow=block;curved=0;rounded=0;entryX=0;entryY=0;entryDx=0;entryDy=5;entryPerimeter=0;" edge="1" parent="1" source="D3TpLOHMZ0HLQb2mTQG_-10" target="gHsjsL-RvakOTJj4pVCs-3">
          <mxGeometry width="80" relative="1" as="geometry">
            <mxPoint x="340" y="410" as="sourcePoint" />
            <mxPoint x="420" y="410" as="targetPoint" />
          </mxGeometry>
        </mxCell>
        <mxCell id="gHsjsL-RvakOTJj4pVCs-5" value="Yêu cầu&amp;nbsp;&lt;div&gt;cập nhật thông tin&amp;nbsp;&lt;div&gt;đối tượng&lt;/div&gt;&lt;/div&gt;" style="html=1;verticalAlign=bottom;endArrow=block;curved=0;rounded=0;entryX=0;entryY=0;entryDx=0;entryDy=5;entryPerimeter=0;" edge="1" parent="1" source="gHsjsL-RvakOTJj4pVCs-3" target="gHsjsL-RvakOTJj4pVCs-4">
          <mxGeometry width="80" relative="1" as="geometry">
            <mxPoint x="340" y="580" as="sourcePoint" />
            <mxPoint x="420" y="580" as="targetPoint" />
            <mxPoint as="offset" />
          </mxGeometry>
        </mxCell>
        <mxCell id="gHsjsL-RvakOTJj4pVCs-7" value="" style="html=1;points=[[0,0,0,0,5],[0,1,0,0,-5],[1,0,0,0,5],[1,1,0,0,-5]];perimeter=orthogonalPerimeter;outlineConnect=0;targetShapes=umlLifeline;portConstraint=eastwest;newEdgeStyle={&quot;curved&quot;:0,&quot;rounded&quot;:0};" vertex="1" parent="1">
          <mxGeometry x="675" y="585" width="10" height="80" as="geometry" />
        </mxCell>
        <mxCell id="gHsjsL-RvakOTJj4pVCs-8" value="Cập nhật thông tin" style="html=1;verticalAlign=bottom;endArrow=block;curved=0;rounded=0;entryX=0;entryY=0;entryDx=0;entryDy=5;entryPerimeter=0;" edge="1" parent="1" source="gHsjsL-RvakOTJj4pVCs-4" target="gHsjsL-RvakOTJj4pVCs-7">
          <mxGeometry width="80" relative="1" as="geometry">
            <mxPoint x="390" y="560" as="sourcePoint" />
            <mxPoint x="470" y="560" as="targetPoint" />
          </mxGeometry>
        </mxCell>
        <mxCell id="gHsjsL-RvakOTJj4pVCs-9" value="Trả về kết quả" style="html=1;verticalAlign=bottom;endArrow=open;dashed=1;endSize=8;curved=0;rounded=0;exitX=0;exitY=1;exitDx=0;exitDy=-5;exitPerimeter=0;" edge="1" parent="1" source="gHsjsL-RvakOTJj4pVCs-7" target="gHsjsL-RvakOTJj4pVCs-4">
          <mxGeometry relative="1" as="geometry">
            <mxPoint x="390" y="720" as="sourcePoint" />
            <mxPoint x="310" y="720" as="targetPoint" />
          </mxGeometry>
        </mxCell>
        <mxCell id="gHsjsL-RvakOTJj4pVCs-10" value="Trả về kết quả" style="html=1;verticalAlign=bottom;endArrow=open;dashed=1;endSize=8;curved=0;rounded=0;exitX=0;exitY=1;exitDx=0;exitDy=-5;exitPerimeter=0;" edge="1" parent="1" source="gHsjsL-RvakOTJj4pVCs-4" target="gHsjsL-RvakOTJj4pVCs-3">
          <mxGeometry relative="1" as="geometry">
            <mxPoint x="390" y="720" as="sourcePoint" />
            <mxPoint x="310" y="720" as="targetPoint" />
          </mxGeometry>
        </mxCell>
        <mxCell id="gHsjsL-RvakOTJj4pVCs-13" value="Trả về kết quả" style="html=1;verticalAlign=bottom;endArrow=open;dashed=1;endSize=8;curved=0;rounded=0;exitX=0;exitY=1;exitDx=0;exitDy=-5;exitPerimeter=0;" edge="1" parent="1" source="gHsjsL-RvakOTJj4pVCs-3" target="D3TpLOHMZ0HLQb2mTQG_-10">
          <mxGeometry relative="1" as="geometry">
            <mxPoint x="380" y="710" as="sourcePoint" />
            <mxPoint x="300" y="710" as="targetPoint" />
          </mxGeometry>
        </mxCell>
        <mxCell id="gHsjsL-RvakOTJj4pVCs-14" value="HIển thị kết quả" style="html=1;verticalAlign=bottom;endArrow=open;dashed=1;endSize=8;curved=0;rounded=0;exitX=0;exitY=1;exitDx=0;exitDy=-5;exitPerimeter=0;" edge="1" parent="1" source="D3TpLOHMZ0HLQb2mTQG_-10" target="TOp8BgIdKu2vKP8mak-F-2">
          <mxGeometry relative="1" as="geometry">
            <mxPoint x="420" y="820" as="sourcePoint" />
            <mxPoint x="340" y="820" as="targetPoint" />
          </mxGeometry>
        </mxCell>
        <mxCell id="gHsjsL-RvakOTJj4pVCs-15" value="[Khi có yêu cầu&lt;div&gt;&amp;nbsp;ngừng theo dõi]&lt;/div&gt;" style="text;html=1;align=center;verticalAlign=middle;resizable=0;points=[];autosize=1;strokeColor=none;fillColor=none;" vertex="1" parent="1">
          <mxGeometry x="15" y="863" width="110" height="40" as="geometry" />
        </mxCell>
        <mxCell id="gHsjsL-RvakOTJj4pVCs-16" value="" style="html=1;points=[[0,0,0,0,5],[0,1,0,0,-5],[1,0,0,0,5],[1,1,0,0,-5]];perimeter=orthogonalPerimeter;outlineConnect=0;targetShapes=umlLifeline;portConstraint=eastwest;newEdgeStyle={&quot;curved&quot;:0,&quot;rounded&quot;:0};" vertex="1" parent="1">
          <mxGeometry x="315" y="910" width="10" height="320" as="geometry" />
        </mxCell>
        <mxCell id="gHsjsL-RvakOTJj4pVCs-18" value="Chọn đối tượng&lt;div&gt;&amp;nbsp;ngừng theo dõi&lt;/div&gt;" style="html=1;verticalAlign=bottom;endArrow=block;curved=0;rounded=0;entryX=0;entryY=0;entryDx=0;entryDy=5;entryPerimeter=0;" edge="1" parent="1" source="TOp8BgIdKu2vKP8mak-F-2" target="gHsjsL-RvakOTJj4pVCs-16">
          <mxGeometry width="80" relative="1" as="geometry">
            <mxPoint x="440" y="1030" as="sourcePoint" />
            <mxPoint x="520" y="1030" as="targetPoint" />
          </mxGeometry>
        </mxCell>
        <mxCell id="gHsjsL-RvakOTJj4pVCs-19" value="" style="html=1;points=[[0,0,0,0,5],[0,1,0,0,-5],[1,0,0,0,5],[1,1,0,0,-5]];perimeter=orthogonalPerimeter;outlineConnect=0;targetShapes=umlLifeline;portConstraint=eastwest;newEdgeStyle={&quot;curved&quot;:0,&quot;rounded&quot;:0};" vertex="1" parent="1">
          <mxGeometry x="435" y="950" width="10" height="240" as="geometry" />
        </mxCell>
        <mxCell id="gHsjsL-RvakOTJj4pVCs-20" value="Yêu cầu&amp;nbsp;&lt;div&gt;ngừng theo dõi&lt;/div&gt;" style="html=1;verticalAlign=bottom;endArrow=block;curved=0;rounded=0;entryX=0;entryY=0;entryDx=0;entryDy=5;entryPerimeter=0;" edge="1" parent="1" source="gHsjsL-RvakOTJj4pVCs-16" target="gHsjsL-RvakOTJj4pVCs-19">
          <mxGeometry width="80" relative="1" as="geometry">
            <mxPoint x="440" y="1030" as="sourcePoint" />
            <mxPoint x="520" y="1030" as="targetPoint" />
          </mxGeometry>
        </mxCell>
        <mxCell id="gHsjsL-RvakOTJj4pVCs-22" value="Yêu cầu&amp;nbsp;&lt;div&gt;ngừng theo dõi&lt;/div&gt;" style="html=1;verticalAlign=bottom;endArrow=block;curved=0;rounded=0;entryX=0;entryY=0;entryDx=0;entryDy=5;entryPerimeter=0;" edge="1" parent="1" source="gHsjsL-RvakOTJj4pVCs-19" target="gHsjsL-RvakOTJj4pVCs-21">
          <mxGeometry width="80" relative="1" as="geometry">
            <mxPoint x="440" y="1030" as="sourcePoint" />
            <mxPoint x="520" y="1030" as="targetPoint" />
          </mxGeometry>
        </mxCell>
        <mxCell id="gHsjsL-RvakOTJj4pVCs-23" value="" style="html=1;points=[[0,0,0,0,5],[0,1,0,0,-5],[1,0,0,0,5],[1,1,0,0,-5]];perimeter=orthogonalPerimeter;outlineConnect=0;targetShapes=umlLifeline;portConstraint=eastwest;newEdgeStyle={&quot;curved&quot;:0,&quot;rounded&quot;:0};" vertex="1" parent="1">
          <mxGeometry x="675" y="1030" width="10" height="80" as="geometry" />
        </mxCell>
        <mxCell id="gHsjsL-RvakOTJj4pVCs-24" value="Dừng theo dõi và&lt;div&gt;&amp;nbsp;lưu thời điểm dừng&lt;/div&gt;" style="html=1;verticalAlign=bottom;endArrow=block;curved=0;rounded=0;entryX=0;entryY=0;entryDx=0;entryDy=5;entryPerimeter=0;" edge="1" parent="1" source="gHsjsL-RvakOTJj4pVCs-21" target="gHsjsL-RvakOTJj4pVCs-23">
          <mxGeometry width="80" relative="1" as="geometry">
            <mxPoint x="440" y="1030" as="sourcePoint" />
            <mxPoint x="520" y="1030" as="targetPoint" />
          </mxGeometry>
        </mxCell>
        <mxCell id="gHsjsL-RvakOTJj4pVCs-25" value="Trả về kết quả" style="html=1;verticalAlign=bottom;endArrow=open;dashed=1;endSize=8;curved=0;rounded=0;exitX=0;exitY=1;exitDx=0;exitDy=-5;exitPerimeter=0;" edge="1" parent="1" source="gHsjsL-RvakOTJj4pVCs-23" target="gHsjsL-RvakOTJj4pVCs-21">
          <mxGeometry relative="1" as="geometry">
            <mxPoint x="520" y="1030" as="sourcePoint" />
            <mxPoint x="440" y="1030" as="targetPoint" />
          </mxGeometry>
        </mxCell>
        <mxCell id="gHsjsL-RvakOTJj4pVCs-26" value="Trả về kết quả" style="html=1;verticalAlign=bottom;endArrow=open;dashed=1;endSize=8;curved=0;rounded=0;exitX=0;exitY=1;exitDx=0;exitDy=-5;exitPerimeter=0;" edge="1" parent="1" source="gHsjsL-RvakOTJj4pVCs-21" target="gHsjsL-RvakOTJj4pVCs-19">
          <mxGeometry relative="1" as="geometry">
            <mxPoint x="685" y="1115" as="sourcePoint" />
            <mxPoint x="575" y="1115" as="targetPoint" />
          </mxGeometry>
        </mxCell>
        <mxCell id="gHsjsL-RvakOTJj4pVCs-27" value="Trả về kết quả" style="html=1;verticalAlign=bottom;endArrow=open;dashed=1;endSize=8;curved=0;rounded=0;exitX=0;exitY=1;exitDx=0;exitDy=-5;exitPerimeter=0;" edge="1" parent="1" source="gHsjsL-RvakOTJj4pVCs-19" target="gHsjsL-RvakOTJj4pVCs-16">
          <mxGeometry relative="1" as="geometry">
            <mxPoint x="695" y="1125" as="sourcePoint" />
            <mxPoint x="585" y="1125" as="targetPoint" />
          </mxGeometry>
        </mxCell>
        <mxCell id="gHsjsL-RvakOTJj4pVCs-28" value="Hiển thị kết quả" style="html=1;verticalAlign=bottom;endArrow=open;dashed=1;endSize=8;curved=0;rounded=0;exitX=0;exitY=1;exitDx=0;exitDy=-5;exitPerimeter=0;" edge="1" parent="1" source="gHsjsL-RvakOTJj4pVCs-16" target="TOp8BgIdKu2vKP8mak-F-2">
          <mxGeometry relative="1" as="geometry">
            <mxPoint x="705" y="1135" as="sourcePoint" />
            <mxPoint x="595" y="1135" as="targetPoint" />
          </mxGeometry>
        </mxCell>
      </root>
    </mxGraphModel>
  </diagram>
</mxfile>
